SplineFontDB: 3.0
FontName: Material-Design-Icons
FullName: Material-Design-Icons
FamilyName: Material-Design-Icons
Weight: Book
Version: 1.0
ItalicAngle: 0
UnderlinePosition: 0
UnderlineWidth: 0
Ascent: 960
Descent: 64
InvalidEm: 0
sfntRevision: 0x00010000
woffMajor: 1
woffMinor: 0
LayerCount: 2
Layer: 0 1 "Back" 1
Layer: 1 1 "Fore" 0
XUID: [1021 342 1534895701 21616]
StyleMap: 0x0000
FSType: 0
OS2Version: 3
OS2_WeightWidthSlopeOnly: 0
OS2_UseTypoMetrics: 0
CreationTime: 1413634424
ModificationTime: 1440133239
PfmFamily: 81
TTFWeight: 400
TTFWidth: 5
LineGap: 0
VLineGap: 0
Panose: 0 0 0 0 0 0 0 0 0 0
OS2TypoAscent: 960
OS2TypoAOffset: 0
OS2TypoDescent: -64
OS2TypoDOffset: 0
OS2TypoLinegap: -64
OS2WinAscent: 960
OS2WinAOffset: 0
OS2WinDescent: 64
OS2WinDOffset: 0
HheadAscent: 960
HheadAOffset: 0
HheadDescent: -64
HheadDOffset: 0
OS2SubXSize: 665
OS2SubYSize: 716
OS2SubXOff: 0
OS2SubYOff: 143
OS2SupXSize: 665
OS2SupYSize: 716
OS2SupXOff: 0
OS2SupYOff: 491
OS2StrikeYSize: 51
OS2StrikeYPos: 265
OS2CodePages: 00000001.00000000
OS2UnicodeRanges: 00000001.10000000.00000000.00000000
DEI: 91125
ShortTable: maxp 16
  1
  0
  745
  600
  24
  0
  0
  2
  0
  0
  0
  0
  0
  0
  0
  0
EndShort
LangName: 1033 "" "" "Regular" "Material-Design-Icons" "" "Version 1.0" "" "" "" "" "Font generated by IcoMoon."
GaspTable: 1 65535 15 1
Encoding: UnicodeBmp
UnicodeInterp: none
NameList: AGL For New Fonts
DisplaySize: -48
AntiAlias: 1
FitToEm: 0
WinInfo: 59761 13 9
BeginChars: 65536 21

StartChar: glyph1
Encoding: 0 -1 1
AltUni2: 000000.ffffffff.0
Width: 0
Flags: W
LayerCount: 2
Fore
SplineSet
0 0 m 1,0,-1
 0 0 l 1,1,-1
 0 0 l 1,2,-1
 0 0 l 1,0,-1
EndSplineSet
EndChar

StartChar: uni0001
Encoding: 1 1 2
Width: 0
Flags: W
LayerCount: 2
Fore
SplineSet
0 0 m 1,0,-1
 0 0 l 1,1,-1
 0 0 l 1,2,-1
 0 0 l 1,0,-1
EndSplineSet
EndChar

StartChar: space
Encoding: 32 32 3
Width: 512
Flags: W
LayerCount: 2
Fore
SplineSet
0 0 m 1,0,-1
 0 0 l 1,1,-1
 0 0 l 1,2,-1
 0 0 l 1,0,-1
EndSplineSet
EndChar

StartChar: uniE620
Encoding: 58912 58912 4
Width: 1024
Flags: W
LayerCount: 2
Fore
SplineSet
256 149 m 1,0,1
 256 132 256 132 262.5 116.5 c 128,-1,2
 269 101 269 101 281 89 c 256,3,4
 293 77 293 77 308.5 70.5 c 128,-1,5
 324 64 324 64 341 64 c 2,6,-1
 683 64 l 2,7,8
 700 64 700 64 715.5 70.5 c 128,-1,9
 731 77 731 77 743 89 c 256,10,11
 755 101 755 101 761.5 116.5 c 128,-1,12
 768 132 768 132 768 149 c 2,13,-1
 768 661 l 1,14,-1
 256 661 l 1,15,-1
 256 149 l 1,16,-1
 256 149 l 1,0,1
811 789 m 1,17,-1
 661 789 l 1,18,-1
 619 832 l 1,19,-1
 405 832 l 1,20,-1
 363 789 l 1,21,-1
 213 789 l 1,22,-1
 213 704 l 1,23,-1
 811 704 l 1,24,-1
 811 789 l 1,25,-1
 811 789 l 1,17,-1
EndSplineSet
EndChar

StartChar: uniE629
Encoding: 58921 58921 5
Width: 1024
Flags: W
LayerCount: 2
Fore
SplineSet
627 230 m 1,0,1
 615 221 615 221 601.5 214 c 128,-1,2
 588 207 588 207 573 202 c 0,3,4
 559 197 559 197 543.5 194.5 c 128,-1,5
 528 192 528 192 512 192 c 256,6,7
 496 192 496 192 480.5 194.5 c 128,-1,8
 465 197 465 197 451 202 c 0,9,10
 436 207 436 207 422.5 214 c 128,-1,11
 409 221 409 221 397 230 c 0,12,13
 394 233 394 233 389.5 234 c 128,-1,14
 385 235 385 235 381 235 c 0,15,16
 377 234 377 234 373.5 232 c 128,-1,17
 370 230 370 230 367 226 c 0,18,19
 364 223 364 223 363 219 c 128,-1,20
 362 215 362 215 363 211 c 0,21,22
 363 207 363 207 365 203 c 128,-1,23
 367 199 367 199 371 196 c 0,24,25
 386 185 386 185 402.5 176.5 c 128,-1,26
 419 168 419 168 437 162 c 256,27,28
 455 156 455 156 474 152.5 c 128,-1,29
 493 149 493 149 512 149 c 256,30,31
 531 149 531 149 550 152.5 c 128,-1,32
 569 156 569 156 587 162 c 256,33,34
 605 168 605 168 621.5 176.5 c 128,-1,35
 638 185 638 185 653 196 c 0,36,37
 657 199 657 199 659 203 c 128,-1,38
 661 207 661 207 661 211 c 0,39,40
 662 215 662 215 661 219 c 128,-1,41
 660 223 660 223 657 226 c 0,42,43
 654 230 654 230 650.5 232 c 128,-1,44
 647 234 647 234 643 235 c 0,45,46
 639 235 639 235 634.5 234 c 128,-1,47
 630 233 630 233 627 230 c 1,48,-1
 627 230 l 1,0,1
405 427 m 1,49,50
 405 418 405 418 402 410 c 128,-1,51
 399 402 399 402 393 396 c 0,52,53
 387 391 387 391 379.5 387.5 c 128,-1,54
 372 384 372 384 363 384 c 256,55,56
 354 384 354 384 346 387.5 c 128,-1,57
 338 391 338 391 332 396 c 0,58,59
 327 402 327 402 323.5 410 c 128,-1,60
 320 418 320 418 320 427 c 256,61,62
 320 436 320 436 323.5 443.5 c 128,-1,63
 327 451 327 451 332 457 c 0,64,65
 338 463 338 463 346 466 c 128,-1,66
 354 469 354 469 363 469 c 256,67,68
 372 469 372 469 379.5 466 c 128,-1,69
 387 463 387 463 393 457 c 256,70,71
 399 451 399 451 402 443.5 c 128,-1,72
 405 436 405 436 405 427 c 1,73,-1
 405 427 l 1,49,50
512 960 m 1,74,75
 406 960 406 960 312.5 920 c 128,-1,76
 219 880 219 880 150 810 c 0,77,78
 80 741 80 741 40 647.5 c 128,-1,79
 0 554 0 554 0 448 c 256,80,81
 0 342 0 342 40 248.5 c 128,-1,82
 80 155 80 155 150 86 c 0,83,84
 219 16 219 16 312.5 -24 c 128,-1,85
 406 -64 406 -64 512 -64 c 256,86,87
 618 -64 618 -64 711.5 -24 c 128,-1,88
 805 16 805 16 874 86 c 0,89,90
 944 155 944 155 984 248.5 c 128,-1,91
 1024 342 1024 342 1024 448 c 256,92,93
 1024 554 1024 554 984 647.5 c 128,-1,94
 944 741 944 741 874 810 c 0,95,96
 805 880 805 880 711.5 920 c 128,-1,97
 618 960 618 960 512 960 c 1,98,-1
 512 960 l 1,74,75
852 328 m 1,99,100
 834 268 834 268 801 217.5 c 128,-1,101
 768 167 768 167 723 130 c 256,102,103
 678 93 678 93 623.5 72.5 c 128,-1,104
 569 52 569 52 509 52 c 0,105,106
 448 52 448 52 393.5 73 c 128,-1,107
 339 94 339 94 294 130 c 0,108,109
 249 167 249 167 216 218 c 128,-1,110
 183 269 183 269 165 329 c 1,111,112
 146 330 146 330 129.5 339 c 128,-1,113
 113 348 113 348 101 362 c 0,114,115
 89 377 89 377 82 395.5 c 128,-1,116
 75 414 75 414 75 436 c 0,117,118
 75 456 75 456 81.5 474 c 128,-1,119
 88 492 88 492 99 506 c 256,120,121
 110 520 110 520 125.5 529.5 c 128,-1,122
 141 539 141 539 159 542 c 1,123,-1
 159 542 l 1,124,125
 192 566 192 566 221.5 593 c 128,-1,126
 251 620 251 620 275 649 c 0,127,128
 298 677 298 677 313.5 705 c 128,-1,129
 329 733 329 733 333 758 c 1,130,-1
 333 758 l 1,131,-1
 333 758 l 1,132,133
 355 716 355 716 403.5 676.5 c 128,-1,134
 452 637 452 637 519 606 c 0,135,136
 586 576 586 576 668 558 c 128,-1,137
 750 540 750 540 838 542 c 0,138,139
 841 543 841 543 844 543.5 c 128,-1,140
 847 544 847 544 851 544 c 0,141,142
 871 544 871 544 889 535.5 c 128,-1,143
 907 527 907 527 920 512 c 0,144,145
 934 497 934 497 941.5 477.5 c 128,-1,146
 949 458 949 458 949 436 c 0,147,148
 949 413 949 413 941.5 393.5 c 128,-1,149
 934 374 934 374 921 360 c 0,150,151
 907 345 907 345 889.5 336.5 c 128,-1,152
 872 328 872 328 852 328 c 1,153,-1
 852 328 l 1,99,100
704 427 m 1,154,155
 704 418 704 418 700.5 410 c 128,-1,156
 697 402 697 402 692 396 c 0,157,158
 686 391 686 391 678 387.5 c 128,-1,159
 670 384 670 384 661 384 c 256,160,161
 652 384 652 384 644.5 387.5 c 128,-1,162
 637 391 637 391 631 396 c 0,163,164
 625 402 625 402 622 410 c 128,-1,165
 619 418 619 418 619 427 c 256,166,167
 619 436 619 436 622 443.5 c 128,-1,168
 625 451 625 451 631 457 c 256,169,170
 637 463 637 463 644.5 466 c 128,-1,171
 652 469 652 469 661 469 c 256,172,173
 670 469 670 469 678 466 c 128,-1,174
 686 463 686 463 692 457 c 0,175,176
 697 451 697 451 700.5 443.5 c 128,-1,177
 704 436 704 436 704 427 c 1,178,-1
 704 427 l 1,154,155
EndSplineSet
EndChar

StartChar: uniE633
Encoding: 58931 58931 6
Width: 1024
Flags: W
LayerCount: 2
Fore
SplineSet
512 875 m 1,0,1
 424 875 424 875 346 841.5 c 128,-1,2
 268 808 268 808 210 750 c 256,3,4
 152 692 152 692 118.5 614 c 128,-1,5
 85 536 85 536 85 448 c 256,6,7
 85 360 85 360 118.5 282 c 128,-1,8
 152 204 152 204 210 146 c 256,9,10
 268 88 268 88 346 54.5 c 128,-1,11
 424 21 424 21 512 21 c 256,12,13
 600 21 600 21 678 54.5 c 128,-1,14
 756 88 756 88 814 146 c 256,15,16
 872 204 872 204 905.5 282 c 128,-1,17
 939 360 939 360 939 448 c 256,18,19
 939 536 939 536 905.5 614 c 128,-1,20
 872 692 872 692 814 750 c 256,21,22
 756 808 756 808 678 841.5 c 128,-1,23
 600 875 600 875 512 875 c 1,24,-1
 512 875 l 1,0,1
555 149 m 1,25,-1
 469 149 l 1,26,-1
 469 235 l 1,27,-1
 555 235 l 1,28,-1
 555 149 l 1,29,-1
 555 149 l 1,25,-1
643 480 m 1,30,-1
 605 441 l 2,31,32
 593 429 593 429 584 417.5 c 128,-1,33
 575 406 575 406 568 393 c 0,34,35
 562 379 562 379 558.5 361.5 c 128,-1,36
 555 344 555 344 555 320 c 1,37,-1
 469 320 l 1,38,-1
 469 341 l 2,39,40
 469 359 469 359 472.5 375.5 c 128,-1,41
 476 392 476 392 483 408 c 0,42,43
 489 423 489 423 498.5 436.5 c 128,-1,44
 508 450 508 450 519 462 c 2,45,-1
 572 516 l 2,46,47
 578 522 578 522 582.5 528.5 c 128,-1,48
 587 535 587 535 591 543 c 0,49,50
 594 551 594 551 595.5 559 c 128,-1,51
 597 567 597 567 597 576 c 0,52,53
 597 594 597 594 590.5 609.5 c 128,-1,54
 584 625 584 625 572 636 c 0,55,56
 561 648 561 648 545.5 654.5 c 128,-1,57
 530 661 530 661 512 661 c 256,58,59
 494 661 494 661 478.5 654.5 c 128,-1,60
 463 648 463 648 452 636 c 0,61,62
 440 625 440 625 433.5 609.5 c 128,-1,63
 427 594 427 594 427 576 c 1,64,-1
 341 576 l 1,65,66
 341 611 341 611 354.5 642.5 c 128,-1,67
 368 674 368 674 391 697 c 256,68,69
 414 720 414 720 445.5 733.5 c 128,-1,70
 477 747 477 747 512 747 c 256,71,72
 547 747 547 747 578.5 733.5 c 128,-1,73
 610 720 610 720 633 697 c 256,74,75
 656 674 656 674 669.5 642.5 c 128,-1,76
 683 611 683 611 683 576 c 0,77,78
 683 562 683 562 680 548.5 c 128,-1,79
 677 535 677 535 672 523 c 256,80,81
 667 511 667 511 659.5 500 c 128,-1,82
 652 489 652 489 643 480 c 1,83,-1
 643 480 l 1,30,-1
EndSplineSet
EndChar

StartChar: uniE63E
Encoding: 58942 58942 7
Width: 1024
Flags: W
LayerCount: 2
Fore
SplineSet
512 875 m 1,0,1
 423 875 423 875 345.5 841.5 c 128,-1,2
 268 808 268 808 210 750 c 256,3,4
 152 692 152 692 118.5 614 c 128,-1,5
 85 536 85 536 85 448 c 256,6,7
 85 360 85 360 118.5 282 c 128,-1,8
 152 204 152 204 210 146 c 256,9,10
 268 88 268 88 345.5 54.5 c 128,-1,11
 423 21 423 21 512 21 c 0,12,13
 600 21 600 21 678 54.5 c 128,-1,14
 756 88 756 88 814 146 c 256,15,16
 872 204 872 204 905.5 282 c 128,-1,17
 939 360 939 360 939 448 c 256,18,19
 939 536 939 536 905.5 614 c 128,-1,20
 872 692 872 692 814 750 c 256,21,22
 756 808 756 808 678 841.5 c 128,-1,23
 600 875 600 875 512 875 c 1,24,-1
 512 875 l 1,0,1
807 619 m 1,25,-1
 681 619 l 1,26,27
 676 639 676 639 670 658.5 c 128,-1,28
 664 678 664 678 656 697 c 0,29,30
 649 716 649 716 640.5 734.5 c 128,-1,31
 632 753 632 753 623 771 c 1,32,33
 652 760 652 760 679 745 c 128,-1,34
 706 730 706 730 729 711 c 256,35,36
 752 692 752 692 772 668.5 c 128,-1,37
 792 645 792 645 807 619 c 1,38,-1
 807 619 l 1,25,-1
512 788 m 1,39,40
 525 769 525 769 537 748.5 c 128,-1,41
 549 728 549 728 559 707 c 0,42,43
 570 686 570 686 578.5 664 c 128,-1,44
 587 642 587 642 593 619 c 1,45,-1
 431 619 l 1,46,47
 437 642 437 642 445.5 664 c 128,-1,48
 454 686 454 686 465 707 c 0,49,50
 475 728 475 728 487 748.5 c 128,-1,51
 499 769 499 769 512 788 c 1,52,-1
 512 788 l 1,39,40
182 363 m 1,53,54
 179 373 179 373 177 383.5 c 128,-1,55
 175 394 175 394 174 405 c 0,56,57
 172 415 172 415 171.5 426 c 128,-1,58
 171 437 171 437 171 448 c 256,59,60
 171 459 171 459 171.5 470 c 128,-1,61
 172 481 172 481 174 491 c 0,62,63
 175 502 175 502 177 512.5 c 128,-1,64
 179 523 179 523 182 533 c 1,65,-1
 326 533 l 1,66,67
 324 523 324 523 323 512.5 c 128,-1,68
 322 502 322 502 322 491 c 0,69,70
 321 480 321 480 320.5 469.5 c 128,-1,71
 320 459 320 459 320 448 c 256,72,73
 320 437 320 437 320.5 426.5 c 128,-1,74
 321 416 321 416 322 405 c 0,75,76
 322 394 322 394 323.5 383.5 c 128,-1,77
 325 373 325 373 326 363 c 1,78,-1
 182 363 l 1,79,-1
 182 363 l 1,53,54
217 277 m 1,80,-1
 342 277 l 1,81,82
 348 257 348 257 354 237.5 c 128,-1,83
 360 218 360 218 367 199 c 0,84,85
 375 180 375 180 383.5 161.5 c 128,-1,86
 392 143 392 143 401 125 c 1,87,88
 372 135 372 135 345 150 c 128,-1,89
 318 165 318 165 295 185 c 0,90,91
 271 204 271 204 251.5 227.5 c 128,-1,92
 232 251 232 251 217 277 c 1,93,-1
 217 277 l 1,80,-1
342 619 m 1,94,-1
 217 619 l 1,95,96
 232 645 232 645 251.5 668.5 c 128,-1,97
 271 692 271 692 295 711 c 0,98,99
 318 731 318 731 345 746 c 128,-1,100
 372 761 372 761 401 771 c 1,101,102
 392 753 392 753 383.5 734.5 c 128,-1,103
 375 716 375 716 367 697 c 0,104,105
 360 678 360 678 354 658.5 c 128,-1,106
 348 639 348 639 342 619 c 1,107,-1
 342 619 l 1,94,-1
512 108 m 1,108,109
 499 127 499 127 487 147.5 c 128,-1,110
 475 168 475 168 465 189 c 256,111,112
 455 210 455 210 446 232 c 128,-1,113
 437 254 437 254 431 277 c 1,114,-1
 593 277 l 1,115,116
 587 254 587 254 578 232 c 128,-1,117
 569 210 569 210 559 189 c 256,118,119
 549 168 549 168 537 147.5 c 128,-1,120
 525 127 525 127 512 108 c 1,121,-1
 512 108 l 1,108,109
612 363 m 1,122,-1
 412 363 l 1,123,124
 411 373 411 373 409.5 383.5 c 128,-1,125
 408 394 408 394 407 405 c 256,126,127
 406 416 406 416 405.5 426.5 c 128,-1,128
 405 437 405 437 405 448 c 256,129,130
 405 459 405 459 405.5 469.5 c 128,-1,131
 406 480 406 480 407 491 c 256,132,133
 408 502 408 502 409.5 512.5 c 128,-1,134
 411 523 411 523 412 533 c 1,135,-1
 612 533 l 1,136,137
 613 523 613 523 614.5 512.5 c 128,-1,138
 616 502 616 502 617 491 c 256,139,140
 618 480 618 480 618.5 469.5 c 128,-1,141
 619 459 619 459 619 448 c 256,142,143
 619 437 619 437 618.5 426.5 c 128,-1,144
 618 416 618 416 617 405 c 256,145,146
 616 394 616 394 614.5 383.5 c 128,-1,147
 613 373 613 373 612 363 c 1,148,-1
 612 363 l 1,122,-1
623 125 m 1,149,150
 632 143 632 143 640.5 161.5 c 128,-1,151
 649 180 649 180 657 199 c 0,152,153
 664 218 664 218 670 237.5 c 128,-1,154
 676 257 676 257 682 277 c 1,155,-1
 807 277 l 1,156,157
 792 251 792 251 772 227.5 c 128,-1,158
 752 204 752 204 729 185 c 256,159,160
 706 166 706 166 679 151 c 128,-1,161
 652 136 652 136 623 125 c 1,162,-1
 623 125 l 1,149,150
698 363 m 1,163,164
 699 373 699 373 700 383.5 c 128,-1,165
 701 394 701 394 702 405 c 256,166,167
 703 416 703 416 703.5 426.5 c 128,-1,168
 704 437 704 437 704 448 c 256,169,170
 704 459 704 459 703.5 469.5 c 128,-1,171
 703 480 703 480 702 491 c 0,172,173
 702 502 702 502 700.5 512.5 c 128,-1,174
 699 523 699 523 698 533 c 1,175,-1
 842 533 l 1,176,177
 845 523 845 523 847 512.5 c 128,-1,178
 849 502 849 502 850 491 c 0,179,180
 852 481 852 481 852.5 470 c 128,-1,181
 853 459 853 459 853 448 c 256,182,183
 853 437 853 437 852.5 426 c 128,-1,184
 852 415 852 415 850 405 c 0,185,186
 849 394 849 394 847 383.5 c 128,-1,187
 845 373 845 373 842 363 c 1,188,-1
 698 363 l 1,189,-1
 698 363 l 1,163,164
EndSplineSet
EndChar

StartChar: uniE648
Encoding: 58952 58952 8
Width: 1024
Flags: W
LayerCount: 2
Fore
SplineSet
811 149 m 1,0,-1
 213 149 l 1,1,-1
 213 747 l 1,2,-1
 512 747 l 1,3,-1
 512 832 l 1,4,-1
 213 832 l 2,5,6
 196 832 196 832 180.5 825.5 c 128,-1,7
 165 819 165 819 153 807 c 256,8,9
 141 795 141 795 134.5 779.5 c 128,-1,10
 128 764 128 764 128 747 c 2,11,-1
 128 149 l 2,12,13
 128 132 128 132 134.5 116.5 c 128,-1,14
 141 101 141 101 153 89 c 256,15,16
 165 77 165 77 180.5 70.5 c 128,-1,17
 196 64 196 64 213 64 c 2,18,-1
 811 64 l 2,19,20
 828 64 828 64 843.5 70.5 c 128,-1,21
 859 77 859 77 871 89 c 256,22,23
 883 101 883 101 889.5 116.5 c 128,-1,24
 896 132 896 132 896 149 c 2,25,-1
 896 448 l 1,26,-1
 811 448 l 1,27,-1
 811 149 l 1,28,-1
 811 149 l 1,0,-1
597 832 m 1,29,-1
 597 747 l 1,30,-1
 750 747 l 1,31,-1
 331 327 l 1,32,-1
 391 267 l 1,33,-1
 811 686 l 1,34,-1
 811 533 l 1,35,-1
 896 533 l 1,36,-1
 896 832 l 1,37,-1
 597 832 l 1,38,-1
 597 832 l 1,29,-1
EndSplineSet
EndChar

StartChar: uniE654
Encoding: 58964 58964 9
Width: 1024
Flags: W
LayerCount: 2
Fore
SplineSet
811 661 m 1,0,-1
 469 661 l 1,1,-1
 469 405 l 1,2,-1
 811 405 l 1,3,-1
 811 661 l 1,4,-1
 811 661 l 1,0,-1
896 832 m 1,5,-1
 128 832 l 2,6,7
 110 832 110 832 94.5 825.5 c 128,-1,8
 79 819 79 819 68 807 c 0,9,10
 56 795 56 795 49.5 779.5 c 128,-1,11
 43 764 43 764 43 747 c 2,12,-1
 43 149 l 2,13,14
 43 132 43 132 49.5 116.5 c 128,-1,15
 56 101 56 101 68 89 c 0,16,17
 79 78 79 78 94.5 71.5 c 128,-1,18
 110 65 110 65 128 65 c 2,19,-1
 896 65 l 2,20,21
 914 65 914 65 929.5 71.5 c 128,-1,22
 945 78 945 78 956 89 c 0,23,24
 968 101 968 101 974.5 116.5 c 128,-1,25
 981 132 981 132 981 149 c 2,26,-1
 981 747 l 2,27,28
 981 764 981 764 974.5 779.5 c 128,-1,29
 968 795 968 795 956 807 c 0,30,31
 945 819 945 819 929.5 825.5 c 128,-1,32
 914 832 914 832 896 832 c 1,33,-1
 896 832 l 1,5,-1
896 149 m 1,34,-1
 128 149 l 1,35,-1
 128 747 l 1,36,-1
 896 747 l 1,37,-1
 896 149 l 1,38,-1
 896 149 l 1,34,-1
EndSplineSet
EndChar

StartChar: uniE65F
Encoding: 58975 58975 10
Width: 1024
Flags: W
LayerCount: 2
Fore
SplineSet
661 363 m 1,0,-1
 627 363 l 1,1,-1
 616 374 l 1,2,3
 631 393 631 393 643.5 413.5 c 128,-1,4
 656 434 656 434 665 457 c 0,5,6
 673 480 673 480 678 504.5 c 128,-1,7
 683 529 683 529 683 555 c 0,8,9
 683 612 683 612 661 662.5 c 128,-1,10
 639 713 639 713 601 751 c 0,11,12
 564 788 564 788 513.5 810 c 128,-1,13
 463 832 463 832 405 832 c 0,14,15
 348 832 348 832 297.5 810 c 128,-1,16
 247 788 247 788 209 751 c 0,17,18
 172 713 172 713 150 662.5 c 128,-1,19
 128 612 128 612 128 555 c 0,20,21
 128 497 128 497 150 446.5 c 128,-1,22
 172 396 172 396 209 359 c 0,23,24
 247 321 247 321 297.5 299 c 128,-1,25
 348 277 348 277 405 277 c 0,26,27
 431 277 431 277 455.5 282 c 128,-1,28
 480 287 480 287 503 295 c 0,29,30
 526 304 526 304 546.5 316.5 c 128,-1,31
 567 329 567 329 586 344 c 1,32,-1
 597 332 l 1,33,-1
 597 299 l 1,34,-1
 811 86 l 1,35,-1
 874 149 l 1,36,-1
 661 363 l 1,37,-1
 661 363 l 1,0,-1
405 363 m 1,38,39
 366 363 366 363 331 378 c 128,-1,40
 296 393 296 393 270 419 c 256,41,42
 244 445 244 445 228.5 480 c 128,-1,43
 213 515 213 515 213 555 c 0,44,45
 213 594 213 594 228.5 629 c 128,-1,46
 244 664 244 664 270 690 c 256,47,48
 296 716 296 716 331 731.5 c 128,-1,49
 366 747 366 747 405 747 c 0,50,51
 445 747 445 747 480 731.5 c 128,-1,52
 515 716 515 716 541 690 c 256,53,54
 567 664 567 664 582 629 c 128,-1,55
 597 594 597 594 597 555 c 0,56,57
 597 515 597 515 582 480 c 128,-1,58
 567 445 567 445 541 419 c 256,59,60
 515 393 515 393 480 378 c 128,-1,61
 445 363 445 363 405 363 c 1,62,-1
 405 363 l 1,38,39
EndSplineSet
EndChar

StartChar: uniE6A0
Encoding: 59040 59040 11
Width: 1024
Flags: W
LayerCount: 2
Fore
SplineSet
512 875 m 1,0,1
 424 875 424 875 346 841.5 c 128,-1,2
 268 808 268 808 210 750 c 256,3,4
 152 692 152 692 118.5 614 c 128,-1,5
 85 536 85 536 85 448 c 256,6,7
 85 360 85 360 118.5 282 c 128,-1,8
 152 204 152 204 210 146 c 256,9,10
 268 88 268 88 346 54.5 c 128,-1,11
 424 21 424 21 512 21 c 256,12,13
 600 21 600 21 678 54.5 c 128,-1,14
 756 88 756 88 814 146 c 256,15,16
 872 204 872 204 905.5 282 c 128,-1,17
 939 360 939 360 939 448 c 256,18,19
 939 536 939 536 905.5 614 c 128,-1,20
 872 692 872 692 814 750 c 256,21,22
 756 808 756 808 678 841.5 c 128,-1,23
 600 875 600 875 512 875 c 1,24,-1
 512 875 l 1,0,1
555 235 m 1,25,-1
 469 235 l 1,26,-1
 469 320 l 1,27,-1
 555 320 l 1,28,-1
 555 235 l 1,29,-1
 555 235 l 1,25,-1
555 405 m 1,30,-1
 469 405 l 1,31,-1
 469 661 l 1,32,-1
 555 661 l 1,33,-1
 555 405 l 1,34,-1
 555 405 l 1,30,-1
EndSplineSet
EndChar

StartChar: uniE6A1
Encoding: 59041 59041 12
Width: 1024
Flags: W
LayerCount: 2
Fore
SplineSet
43 64 m 1,0,-1
 981 64 l 1,1,-1
 512 875 l 1,2,-1
 43 64 l 1,3,-1
 43 64 l 1,0,-1
555 192 m 1,4,-1
 469 192 l 1,5,-1
 469 277 l 1,6,-1
 555 277 l 1,7,-1
 555 192 l 1,8,-1
 555 192 l 1,4,-1
555 363 m 1,9,-1
 469 363 l 1,10,-1
 469 533 l 1,11,-1
 555 533 l 1,12,-1
 555 363 l 1,13,-1
 555 363 l 1,9,-1
EndSplineSet
EndChar

StartChar: uniE6B1
Encoding: 59057 59057 13
Width: 1024
Flags: W
LayerCount: 2
Fore
SplineSet
171 704 m 1,0,-1
 85 704 l 1,1,-1
 85 107 l 2,2,3
 85 89 85 89 92 73.5 c 128,-1,4
 99 58 99 58 110 46 c 0,5,6
 122 35 122 35 137.5 28 c 128,-1,7
 153 21 153 21 171 21 c 2,8,-1
 768 21 l 1,9,-1
 768 107 l 1,10,-1
 171 107 l 1,11,-1
 171 704 l 1,12,-1
 171 704 l 1,0,-1
853 875 m 1,13,-1
 341 875 l 2,14,15
 324 875 324 875 308.5 868 c 128,-1,16
 293 861 293 861 281 850 c 0,17,18
 269 838 269 838 262.5 822.5 c 128,-1,19
 256 807 256 807 256 789 c 2,20,-1
 256 277 l 2,21,22
 256 260 256 260 262.5 244.5 c 128,-1,23
 269 229 269 229 281 217 c 256,24,25
 293 205 293 205 308.5 198.5 c 128,-1,26
 324 192 324 192 341 192 c 2,27,-1
 853 192 l 2,28,29
 871 192 871 192 886.5 198.5 c 128,-1,30
 902 205 902 205 914 217 c 0,31,32
 925 229 925 229 932 244.5 c 128,-1,33
 939 260 939 260 939 277 c 2,34,-1
 939 789 l 2,35,36
 939 807 939 807 932 822.5 c 128,-1,37
 925 838 925 838 914 850 c 0,38,39
 902 861 902 861 886.5 868 c 128,-1,40
 871 875 871 875 853 875 c 1,41,-1
 853 875 l 1,13,-1
811 491 m 1,42,-1
 640 491 l 1,43,-1
 640 320 l 1,44,-1
 555 320 l 1,45,-1
 555 491 l 1,46,-1
 384 491 l 1,47,-1
 384 576 l 1,48,-1
 555 576 l 1,49,-1
 555 747 l 1,50,-1
 640 747 l 1,51,-1
 640 576 l 1,52,-1
 811 576 l 1,53,-1
 811 491 l 1,54,-1
 811 491 l 1,42,-1
EndSplineSet
EndChar

StartChar: uniE706
Encoding: 59142 59142 14
Width: 1024
Flags: W
LayerCount: 2
Fore
SplineSet
128 224 m 1,0,-1
 128 64 l 1,1,-1
 288 64 l 1,2,-1
 760 536 l 1,3,-1
 600 696 l 1,4,-1
 128 224 l 1,5,-1
 128 224 l 1,0,-1
883 659 m 1,6,7
 890 666 890 666 893 673.5 c 128,-1,8
 896 681 896 681 896 690 c 0,9,10
 896 698 896 698 893 706 c 128,-1,11
 890 714 890 714 883 720 c 2,12,-1
 784 819 l 2,13,14
 778 826 778 826 770 829 c 128,-1,15
 762 832 762 832 754 832 c 0,16,17
 745 832 745 832 737.5 829 c 128,-1,18
 730 826 730 826 723 819 c 2,19,-1
 645 741 l 1,20,-1
 805 581 l 1,21,-1
 883 659 l 1,22,-1
 883 659 l 1,6,7
EndSplineSet
EndChar

StartChar: uniE796
Encoding: 59286 59286 15
Width: 1024
Flags: W
LayerCount: 2
Fore
SplineSet
128 224 m 1,0,-1
 128 64 l 1,1,-1
 288 64 l 1,2,-1
 760 536 l 1,3,-1
 600 696 l 1,4,-1
 128 224 l 1,5,-1
 128 224 l 1,0,-1
883 659 m 1,6,7
 890 666 890 666 893 673.5 c 128,-1,8
 896 681 896 681 896 690 c 0,9,10
 896 698 896 698 893 706 c 128,-1,11
 890 714 890 714 883 720 c 2,12,-1
 784 819 l 2,13,14
 778 826 778 826 770 829 c 128,-1,15
 762 832 762 832 754 832 c 0,16,17
 745 832 745 832 737.5 829 c 128,-1,18
 730 826 730 826 723 819 c 2,19,-1
 645 741 l 1,20,-1
 805 581 l 1,21,-1
 883 659 l 1,22,-1
 883 659 l 1,6,7
EndSplineSet
EndChar

StartChar: uniE848
Encoding: 59464 59464 16
Width: 1024
Flags: W
LayerCount: 2
Fore
SplineSet
108 121 m 1,0,-1
 165 98 l 1,1,-1
 165 483 l 1,2,-1
 62 233 l 2,3,4
 55 217 55 217 55.5 200 c 128,-1,5
 56 183 56 183 62 168 c 256,6,7
 68 153 68 153 80 140.5 c 128,-1,8
 92 128 92 128 108 121 c 1,9,-1
 108 121 l 1,0,-1
940 280 m 1,10,-1
 728 790 l 2,11,12
 723 802 723 802 715 811.5 c 128,-1,13
 707 821 707 821 697 828 c 256,14,15
 687 835 687 835 675.5 838.5 c 128,-1,16
 664 842 664 842 651 843 c 0,17,18
 647 843 647 843 643 842.5 c 128,-1,19
 639 842 639 842 634 841 c 0,20,21
 630 840 630 840 625.5 839 c 128,-1,22
 621 838 621 838 617 836 c 2,23,-1
 303 706 l 2,24,25
 291 701 291 701 281.5 693 c 128,-1,26
 272 685 272 685 265 675 c 256,27,28
 258 665 258 665 254.5 653.5 c 128,-1,29
 251 642 251 642 250 629 c 0,30,31
 250 625 250 625 250.5 620.5 c 128,-1,32
 251 616 251 616 252 612 c 256,33,34
 253 608 253 608 254 603.5 c 128,-1,35
 255 599 255 599 257 595 c 2,36,-1
 468 84 l 2,37,38
 473 72 473 72 481.5 62.5 c 128,-1,39
 490 53 490 53 500 46 c 256,40,41
 510 39 510 39 522 35.5 c 128,-1,42
 534 32 534 32 546 32 c 0,43,44
 551 32 551 32 555 32.5 c 128,-1,45
 559 33 559 33 563 34 c 0,46,47
 567 34 567 34 571 35.5 c 128,-1,48
 575 37 575 37 579 38 c 2,49,-1
 894 169 l 2,50,51
 910 175 910 175 921.5 187 c 128,-1,52
 933 199 933 199 940 215 c 0,53,54
 946 230 946 230 946.5 246.5 c 128,-1,55
 947 263 947 263 940 280 c 1,56,-1
 940 280 l 1,10,-1
336 587 m 1,57,58
 327 587 327 587 319.5 590 c 128,-1,59
 312 593 312 593 306 599 c 256,60,61
 300 605 300 605 296.5 613 c 128,-1,62
 293 621 293 621 293 629 c 0,63,64
 293 638 293 638 296.5 646 c 128,-1,65
 300 654 300 654 306 659 c 0,66,67
 312 665 312 665 319.5 668.5 c 128,-1,68
 327 672 327 672 336 672 c 256,69,70
 345 672 345 672 352.5 668.5 c 128,-1,71
 360 665 360 665 366 659 c 0,72,73
 372 654 372 654 375.5 646 c 128,-1,74
 379 638 379 638 379 629 c 0,75,76
 379 621 379 621 375.5 613 c 128,-1,77
 372 605 372 605 366 599 c 256,78,79
 360 593 360 593 352.5 590 c 128,-1,80
 345 587 345 587 336 587 c 1,81,-1
 336 587 l 1,57,58
251 117 m 1,82,83
 251 100 251 100 257.5 84.5 c 128,-1,84
 264 69 264 69 276 57 c 0,85,86
 287 45 287 45 302.5 38.5 c 128,-1,87
 318 32 318 32 336 32 c 2,88,-1
 398 32 l 1,89,-1
 251 388 l 1,90,-1
 251 117 l 1,91,-1
 251 117 l 1,82,83
EndSplineSet
EndChar

StartChar: uniE89A
Encoding: 59546 59546 17
Width: 1024
Flags: W
LayerCount: 2
Fore
SplineSet
658 644 m 1,0,-1
 597 704 l 1,1,-1
 341 448 l 1,2,-1
 597 192 l 1,3,-1
 658 252 l 1,4,-1
 462 448 l 1,5,-1
 658 644 l 1,0,-1
EndSplineSet
EndChar

StartChar: uniE89B
Encoding: 59547 59547 18
Width: 1024
Flags: W
LayerCount: 2
Fore
SplineSet
427 704 m 1,0,-1
 366 644 l 1,1,-1
 562 448 l 1,2,-1
 366 252 l 1,3,-1
 427 192 l 1,4,-1
 683 448 l 1,5,-1
 427 704 l 1,0,-1
EndSplineSet
EndChar

StartChar: uniE89C
Encoding: 59548 59548 19
Width: 1024
Flags: W
LayerCount: 2
Fore
SplineSet
811 686 m 1,0,-1
 750 747 l 1,1,-1
 512 508 l 1,2,-1
 274 747 l 1,3,-1
 213 686 l 1,4,-1
 452 448 l 1,5,-1
 213 210 l 1,6,-1
 274 149 l 1,7,-1
 512 388 l 1,8,-1
 750 149 l 1,9,-1
 811 210 l 1,10,-1
 572 448 l 1,11,-1
 811 686 l 1,0,-1
EndSplineSet
EndChar

StartChar: uniE8A1
Encoding: 59553 59553 20
Width: 1024
Flags: W
LayerCount: 2
Fore
SplineSet
128 192 m 1,0,-1
 896 192 l 1,1,-1
 896 277 l 1,2,-1
 128 277 l 1,3,-1
 128 192 l 1,4,-1
 128 192 l 1,0,-1
128 405 m 1,5,-1
 896 405 l 1,6,-1
 896 491 l 1,7,-1
 128 491 l 1,8,-1
 128 405 l 1,9,-1
 128 405 l 1,5,-1
128 704 m 1,10,-1
 128 619 l 1,11,-1
 896 619 l 1,12,-1
 896 704 l 1,13,-1
 128 704 l 1,14,-1
 128 704 l 1,10,-1
EndSplineSet
EndChar
